<?xml version="1.0" standalone="no"?>
<!DOCTYPE svg PUBLIC "-//W3C//DTD SVG 20010904//EN"
 "http://www.w3.org/TR/2001/REC-SVG-20010904/DTD/svg10.dtd">
<svg version="1.0" xmlns="http://www.w3.org/2000/svg"
 width="700.000000pt" height="700.000000pt" viewBox="0 0 700.000000 700.000000"
 preserveAspectRatio="xMidYMid meet">
<metadata>
Created by potrace 1.11, written by Peter Selinger 2001-2013
</metadata>
<g transform="translate(0.000000,700.000000) scale(0.100000,-0.100000)"
fill="#000000" stroke="none">
<path d="M3327 6230 c-43 -9 -79 -17 -80 -17 -15 0 -126 -44 -175 -69 -87 -45
-155 -97 -230 -174 -176 -181 -302 -480 -327 -775 -4 -44 -8 -81 -9 -82 -1 -1
-119 -59 -261 -128 -1002 -488 -1279 -647 -1499 -863 -148 -145 -201 -246
-211 -400 -6 -105 88 -213 260 -299 110 -56 412 -158 522 -177 16 -2 57 -11
93 -19 36 -9 83 -18 105 -22 22 -3 47 -7 55 -10 8 -2 42 -6 75 -10 93 -9 117
-15 111 -30 -31 -81 -333 -506 -558 -785 -16 -19 -32 -39 -36 -45 -4 -5 -21
-28 -37 -50 -17 -22 -33 -42 -36 -45 -3 -3 -63 -83 -134 -179 -229 -311 -344
-526 -391 -730 -25 -105 -27 -129 -28 -262 0 -146 15 -200 69 -247 67 -59 28
-57 1045 -57 l935 0 55 26 c52 25 120 88 148 138 7 12 29 52 49 89 19 37 40
73 45 80 6 6 7 12 3 12 -4 0 -3 6 3 13 5 6 36 62 67 122 31 61 72 135 91 166
19 31 34 59 34 61 0 3 30 54 66 114 37 60 74 122 83 137 29 51 159 229 206
284 26 30 55 53 65 53 19 0 121 -116 196 -222 81 -115 248 -401 364 -623 197
-378 219 -405 353 -441 72 -19 1866 -14 1917 5 49 19 89 58 113 111 26 57 31
241 10 360 -35 202 -132 419 -292 650 -41 60 -260 356 -288 390 -14 17 -223
285 -287 370 -83 107 -201 276 -277 395 l-77 120 31 7 c18 3 61 9 97 13 36 4
67 8 70 10 3 2 26 6 50 10 193 28 532 128 696 205 276 129 345 269 245 495
-52 119 -206 274 -406 411 -82 56 -268 169 -340 206 -27 14 -75 40 -105 57
-80 45 -741 372 -1037 513 -30 14 -43 27 -44 42 -6 152 -44 325 -104 478 -112
281 -319 495 -563 579 -153 53 -353 69 -495 39z"/>
</g>
</svg>
